<!--
    Created by Michael Richins
    https://pictogrammers.com/contributor/MrGrigri/

    Pictogrammers Free License

    Last Updated: February 1st, 2023

    This package is released as free, open-source, and GPL friendly by
    the [Pictogrammers](https://pictogrammers.com/). You may use it
    for commercial projects, open-source projects, or anything really.

    # Icons: Apache 2.0 (https://www.apache.org/licenses/LICENSE-2.0)
    Some of the icons are redistributed under the Apache 2.0 license. All other
    icons are either redistributed under their respective licenses or are
    distributed under the Apache 2.0 license.
-->
<svg xmlns="http://www.w3.org/2000/svg" viewBox="0 0 24 24" width="24">
  <path
    d="M19 6V5A2 2 0 0 0 17 3H15A2 2 0 0 0 13 5V6H11V5A2 2 0 0 0 9 3H7A2 2 0 0 0 5 5V6H3V20H13.09A5.47 5.47 0 0 1 13 19A6 6 0 0 1 21 13.34V6M22.54 16.88L20.41 19L22.54 21.12L21.12 22.54L19 20.41L16.88 22.54L15.46 21.12L17.59 19L15.46 16.88L16.88 15.46L19 17.59L21.12 15.46Z"
  />
</svg>
